<?xml version="1.0" encoding="UTF-8"?>
<svg version="1.1" xmlns="http://www.w3.org/2000/svg" width="1254" height="1254">
<path d="M0 0 C413.82 0 827.64 0 1254 0 C1254 413.82 1254 827.64 1254 1254 C840.18 1254 426.36 1254 0 1254 C0 840.18 0 426.36 0 0 Z " fill="#040407" transform="translate(0,0)"/>
<path d="M0 0 C10.63511488 7.74919111 19.79164566 18.02994671 27.88671875 28.3515625 C30.53972558 31.72238471 33.30679585 34.98693184 36.0859375 38.25390625 C36.57626465 38.83172852 37.0665918 39.40955078 37.57177734 40.00488281 C38.72147207 41.35945322 39.87232414 42.7130412 41.0234375 44.06640625 C39.74640507 46.81619061 38.37094522 49.02689872 36.37890625 51.30859375 C35.86650391 51.90027344 35.35410156 52.49195313 34.82617188 53.1015625 C34.02663086 54.01228516 34.02663086 54.01228516 33.2109375 54.94140625 C32.16237462 56.14679992 31.11419386 57.35252611 30.06640625 58.55859375 C29.55899902 59.14092773 29.0515918 59.72326172 28.52880859 60.32324219 C26.32483046 62.87536737 24.17275784 65.46815209 22.0234375 68.06640625 C14.80712052 60.9279632 7.90700846 53.51092167 1.5859375 45.56640625 C-10.20725738 31.07583169 -23.62072293 18.72255594 -42.9765625 16.06640625 C-61.56422601 14.27504858 -76.42424453 17.85778858 -91.15234375 29.8359375 C-101.97417942 39.81724225 -108.44211673 53.29932929 -109.3515625 67.94140625 C-109.98573695 85.41349185 -105.38225749 98.28326807 -94.2265625 111.81640625 C-84.80900439 121.89894461 -70.36001507 129.08837675 -56.45532227 129.62719727 C-38.71764381 129.6411907 -21.85758695 123.76746081 -9.05859375 111.265625 C-5.91773403 107.94798143 -2.90766026 104.57085247 0.0234375 101.06640625 C1.40470755 99.45077099 2.7905334 97.83910073 4.17626953 96.22729492 C5.73569316 94.41259816 7.29210528 92.59536086 8.84765625 90.77734375 C11.90421125 87.20528162 14.96350489 83.63557506 18.0234375 80.06640625 C19.02345091 78.89975108 20.02345089 77.7330844 21.0234375 76.56640625 C23.0234375 74.23307292 25.0234375 71.89973958 27.0234375 69.56640625 C27.76630005 68.69967285 27.76630005 68.69967285 28.52416992 67.81542969 C29.5215676 66.65188027 30.51912553 65.48846821 31.5168457 64.32519531 C34.05801051 61.3619556 36.59611949 58.39618655 39.12890625 55.42578125 C43.59884689 50.1886383 48.0763894 44.97208151 52.7109375 39.87890625 C55.72158229 36.56557545 58.58908928 33.17698696 61.3984375 29.69140625 C66.35804886 23.57195559 71.6371292 17.80803324 77.0234375 12.06640625 C77.66667969 11.34582031 78.30992187 10.62523437 78.97265625 9.8828125 C92.18219133 -4.35826979 113.20142983 -15.07444472 132.73828125 -15.86328125 C133.82238281 -15.88648438 134.90648437 -15.9096875 136.0234375 -15.93359375 C137.42063479 -16.01851943 138.81776589 -16.10453807 140.21484375 -16.19140625 C162.94983488 -17.26194208 182.75793277 -9.47296616 200.0234375 5.06640625 C200.67441406 5.56140625 201.32539062 6.05640625 201.99609375 6.56640625 C212.73029993 15.1025543 219.49683494 27.7627687 225.0234375 40.06640625 C225.36117188 40.81535156 225.69890625 41.56429687 226.046875 42.3359375 C233.79013752 61.15743203 232.43423002 86.28167491 224.95605469 104.88818359 C220.64950091 114.94657961 215.40351859 123.90490481 208.0234375 132.06640625 C207.38664062 132.7728125 206.74984375 133.47921875 206.09375 134.20703125 C192.73642533 148.26172628 171.65336414 159.34318136 152.15478516 160.19116211 C126.86380988 160.82176667 126.86380988 160.82176667 116.0234375 157.06640625 C114.47462891 156.57333984 114.47462891 156.57333984 112.89453125 156.0703125 C95.01310923 149.85162301 81.06894237 138.8825331 69.44921875 124.09765625 C65.98016771 119.76273901 62.30605209 115.61338433 58.62719727 111.45605469 C55.14866574 107.48822934 52.02762809 103.40579266 49.0234375 99.06640625 C49.43795166 98.59541504 49.85246582 98.12442383 50.27954102 97.63916016 C53.25199148 94.26108849 56.19873793 90.86597883 59.08984375 87.41796875 C59.62448242 86.78391113 60.15912109 86.14985352 60.70996094 85.49658203 C61.78952768 84.21504229 62.86445058 82.92957544 63.93457031 81.64013672 C65.25446616 80.07813232 66.63434934 78.56721167 68.0234375 77.06640625 C68.6834375 77.06640625 69.3434375 77.06640625 70.0234375 77.06640625 C71.39556051 78.59835897 72.6949821 80.19561706 73.9609375 81.81640625 C77.82651649 86.65304856 81.85903059 91.24786499 86.06933594 95.78515625 C88.66860968 98.58746968 91.22026621 101.41724217 93.7109375 104.31640625 C103.3244988 115.29359327 112.96745712 122.61991171 127.0234375 127.06640625 C127.93996094 127.42089844 128.85648438 127.77539062 129.80078125 128.140625 C144.26308123 132.29524936 160.25388946 128.45565315 173.125 121.35546875 C175.57768782 119.71787356 177.80116364 118.00234867 180.0234375 116.06640625 C180.6525 115.53402344 181.2815625 115.00164062 181.9296875 114.453125 C192.49374826 104.74623584 198.64014236 91.02933473 199.26171875 76.78125 C199.66926608 59.1184071 195.58580383 45.40557894 183.34375 32.35546875 C171.62744609 20.79696018 157.33607889 15.85808364 141.0234375 15.62890625 C123.12732949 15.7675196 108.90373098 24.03715015 96.51904297 36.50244141 C92.32343657 40.88981564 88.45110253 45.5558595 84.57080078 50.22070312 C81.92935571 53.37143281 79.22370036 56.46610445 76.5234375 59.56640625 C72.25063312 64.48469175 68.00340941 69.42375765 63.7734375 74.37890625 C60.34902801 78.38988126 56.88617022 82.3529573 53.3359375 86.25390625 C49.48492745 90.49348668 45.87499795 94.89572737 42.2734375 99.34765625 C39.37632382 102.84833528 36.32273316 106.18980393 33.26171875 109.546875 C30.99496592 112.09845542 28.84803663 114.71812157 26.7109375 117.37890625 C10.23131955 137.64167127 -9.98243181 156.2451524 -36.9765625 160.06640625 C-50.76147489 161.10201946 -64.62532816 160.85282289 -77.9765625 157.06640625 C-78.99105469 156.81117188 -80.00554687 156.5559375 -81.05078125 156.29296875 C-93.98263617 152.60781271 -104.46393945 144.30528476 -113.9765625 135.06640625 C-114.61078125 134.4940625 -115.245 133.92171875 -115.8984375 133.33203125 C-130.73748561 119.54353522 -139.38981549 96.51164923 -140.21484375 76.60546875 C-140.77859484 51.50451505 -132.86605964 28.80336022 -115.39453125 10.4296875 C-102.32281754 -2.34638163 -87.89869815 -10.95089694 -69.9765625 -14.93359375 C-69.19579346 -15.10866455 -68.41502441 -15.28373535 -67.6105957 -15.46411133 C-44.07394576 -19.6592154 -19.5798138 -13.25384036 0 0 Z " fill="#828AF8" transform="translate(428.9765625,567.93359375)"/>
<path d="M0 0 C4.4753662 2.27108136 6.5978631 4.90455089 9.14453125 9.3046875 C9.64789581 12.51547146 9.64789581 12.51547146 9.65246582 16.03746033 C9.65870578 16.68945532 9.66494575 17.34145031 9.6713748 18.01320273 C9.68725252 20.18487623 9.67472194 22.35541899 9.66210938 24.52709961 C9.66753335 26.0898402 9.67465755 27.65257568 9.68334961 29.21530151 C9.70156693 33.4535493 9.69451852 37.69140701 9.68183327 41.92966151 C9.67168116 46.37894512 9.68110657 50.82819611 9.68737793 55.27748108 C9.69465473 62.7583716 9.68507294 70.23910418 9.66601562 77.7199707 C9.64431838 86.33591589 9.65124584 94.95148135 9.67332125 103.56741709 C9.69156022 110.98600289 9.69399018 118.40447528 9.68356657 125.82307631 C9.67736882 130.2439755 9.67639093 134.66469725 9.68971252 139.08558464 C9.70139209 143.25296721 9.69302817 147.41986877 9.6701355 151.58720016 C9.66490914 153.10476323 9.66625595 154.62236777 9.67518616 156.13991356 C9.80775751 180.98806106 0.31608809 201.5480691 -16.85546875 219.3046875 C-17.51933594 219.99433594 -18.18320313 220.68398438 -18.8671875 221.39453125 C-28.25825028 230.42783926 -41.30862684 237.1236686 -53.73046875 240.9296875 C-54.49101563 241.16945313 -55.2515625 241.40921875 -56.03515625 241.65625 C-79.0403228 246.94552652 -104.13121006 243.50253384 -124.35546875 231.6171875 C-145.09959003 218.37573044 -159.42379519 199.28555393 -165.2421875 175.296875 C-170.22528815 150.98442216 -165.41909894 126.95783765 -151.85546875 106.3046875 C-138.29286339 86.97733147 -118.24477512 75.07521649 -95.42211914 69.73535156 C-72.81527405 65.942098 -49.86512069 70.64072647 -30.85546875 83.3046875 C-29.09056213 84.67336014 -27.34052133 86.06136127 -25.60375977 87.46557617 C-24.71197525 88.18484787 -23.82019073 88.90411957 -22.90138245 89.64518738 C-22.22623093 90.19282242 -21.55107941 90.74045746 -20.85546875 91.3046875 C-20.85182312 90.29070892 -20.84817749 89.27673035 -20.84442139 88.23202515 C-20.80745261 78.66820916 -20.74965933 69.1047146 -20.67156601 59.54114342 C-20.63208571 54.62458349 -20.59989992 49.70820281 -20.58447266 44.79150391 C-20.56930975 40.04505702 -20.53487064 35.29910292 -20.48715973 30.55287552 C-20.47234217 28.7436718 -20.46442752 26.93439772 -20.4635849 25.12513351 C-20.46121458 22.58728477 -20.43413108 20.05079716 -20.40136719 17.51318359 C-20.40891273 16.39540024 -20.40891273 16.39540024 -20.41661072 15.2550354 C-20.31488761 10.15010351 -19.03291899 7.26116331 -15.85546875 3.3046875 C-11.28032717 -0.68389747 -5.86023108 -2.19604449 0 0 Z " fill="#F6F6F8" transform="translate(1045.85546875,482.6953125)"/>
<path d="M0 0 C2.69658819 2.14812957 5.20797545 4.38775152 7.703125 6.765625 C8.55003906 7.52359375 9.39695312 8.2815625 10.26953125 9.0625 C21.82170222 19.85628417 31.26080161 35.27516973 34.703125 50.765625 C34.88617187 51.49007812 35.06921875 52.21453125 35.2578125 52.9609375 C40.29890951 75.54228986 35.69755917 99.65740193 23.390625 119.078125 C11.51763381 137.03465345 -5.38014632 150.20266524 -26.296875 155.765625 C-27.12703125 156.04148437 -27.9571875 156.31734375 -28.8125 156.6015625 C-50.11131931 162.80897241 -72.92656053 159.26310672 -92.421875 149.390625 C-96.44283847 147.16941289 -99.92289471 144.50752581 -103.49169922 141.63427734 C-104.39169647 140.91074066 -105.29169373 140.18720398 -106.21896362 139.44174194 C-106.90467438 138.88862335 -107.59038513 138.33550476 -108.296875 137.765625 C-108.30274124 138.55409821 -108.30860748 139.34257141 -108.31465149 140.15493774 C-108.37264839 147.59964926 -108.44476471 155.04402877 -108.53258991 162.48844337 C-108.57724377 166.31535343 -108.61651055 170.14215825 -108.64331055 173.96923828 C-108.66939375 177.66528259 -108.70983076 181.36092087 -108.76006126 185.0567131 C-108.77669625 186.46399241 -108.78823148 187.87134189 -108.79448891 189.2787056 C-108.80416581 191.25574201 -108.83395286 193.23264859 -108.86450195 195.20947266 C-108.87560501 196.33310211 -108.88670807 197.45673157 -108.89814758 198.6144104 C-109.52003436 203.52929363 -111.19483635 206.77110231 -114.859375 210.078125 C-119.57861365 213.34529022 -123.6517458 213.38997109 -129.296875 212.765625 C-133.84686405 210.53199401 -136.04676134 208.24879371 -138.296875 203.765625 C-138.67160511 201.02426434 -138.67160511 201.02426434 -138.6710968 197.99504089 C-138.67811111 196.84172272 -138.68512543 195.68840454 -138.69235229 194.50013733 C-138.68470856 193.24349777 -138.67706482 191.98685822 -138.66918945 190.69213867 C-138.6716191 189.34791787 -138.67534009 188.00369888 -138.68025208 186.65948486 C-138.68965111 183.01203211 -138.68023871 179.36484828 -138.66691995 175.71741652 C-138.65557059 171.88520395 -138.65971631 168.05300398 -138.66166687 164.22077942 C-138.66254992 157.77385092 -138.65147699 151.32702751 -138.63305664 144.88012695 C-138.61198757 137.46457121 -138.60835801 130.04917046 -138.6146186 122.63359088 C-138.6203537 115.46979585 -138.61461185 108.30605452 -138.60344505 101.14226723 C-138.59884343 98.1104055 -138.59790585 95.07857711 -138.6000309 92.04671288 C-138.61305438 60.71246526 -136.97432396 34.72164618 -114.47265625 10.9375 C-83.52237288 -19.95721733 -36.40805359 -24.67465243 0 0 Z " fill="#F6F5F7" transform="translate(819.296875,567.234375)"/>
<path d="M0 0 C13.31796439 9.17105332 22.51444913 22.54967744 25.61328125 38.52734375 C27.93562254 54.86450986 24.47090073 70.81908265 14.89013672 84.34228516 C6.46844241 95.32869269 -5.87947699 103.32033911 -19.4921875 106.234375 C-36.77183533 108.50698174 -52.5162535 107.07079748 -66.9375 96.6875 C-79.82488187 86.41635355 -87.47003053 74.85689794 -90.9375 58.6875 C-91.85230246 47.36161468 -91.90713186 36.09121529 -86.9375 25.6875 C-86.51339844 24.759375 -86.08929687 23.83125 -85.65234375 22.875 C-77.69517503 6.91633294 -64.30245972 -2.66595995 -47.7578125 -8.41796875 C-30.588156 -12.43826664 -14.88459161 -8.79917846 0 0 Z " fill="#060508" transform="translate(999.9375,590.3125)"/>
<path d="M0 0 C11.64468247 8.56273377 20.27700397 21.02111235 23.3125 35.25 C25.86451414 52.23912267 23.69652581 68.86329862 13.63427734 83.06738281 C8.65928463 89.71485272 3.12513414 94.64515251 -4 99 C-4.67675781 99.41765625 -5.35351562 99.8353125 -6.05078125 100.265625 C-18.88800632 107.38855734 -35.53534434 107.93749378 -49.734375 105.30859375 C-65.54173393 100.41486476 -78.40936111 89.22457213 -86.2109375 74.75390625 C-87.2641859 72.53258161 -88.15747535 70.30914164 -89 68 C-89.2990625 67.21625 -89.598125 66.4325 -89.90625 65.625 C-94.17239662 52.6685547 -93.14128432 38.49805628 -88 26 C-87.649375 25.11957031 -87.29875 24.23914063 -86.9375 23.33203125 C-83.86375239 16.44811734 -79.2862855 11.30420511 -74 6 C-73.07574219 5.0409375 -73.07574219 5.0409375 -72.1328125 4.0625 C-52.03978638 -15.25440065 -22.53121054 -13.60325138 0 0 Z " fill="#060508" transform="translate(802,591)"/>
<path d="M0 0 C4.38001594 2.00441407 6.92800425 5.76123087 9 10 C9.27795045 12.68045686 9.39564055 15.12257529 9.36508179 17.79853821 C9.36820078 18.57712431 9.37131978 19.35571041 9.3745333 20.15789002 C9.3814702 22.76341451 9.36715132 25.36838796 9.35302734 27.97387695 C9.35385825 29.84338488 9.35607476 31.71289263 9.35957336 33.58239746 C9.36452277 37.60716736 9.36042557 41.63179156 9.34955978 45.65654945 C9.33320315 52.02314388 9.34166286 58.38955539 9.35440063 64.75614929 C9.38452626 81.71693315 9.38306527 98.67768426 9.36414778 115.63848132 C9.35181092 126.7808476 9.35368592 137.92300684 9.38253558 149.06534928 C9.39776425 155.39152501 9.39029423 161.71713866 9.36582541 168.04327929 C9.35574314 171.98359175 9.36645886 175.92364732 9.38294029 179.86392975 C9.38638732 181.6876056 9.38131455 183.51132106 9.36697197 185.33494377 C9.02529014 198.10572783 9.02529014 198.10572783 15 209 C20.24201061 212.71278451 25.46511641 212.43396899 31.63476562 212.43945312 C37.18391734 212.58404019 40.39248493 213.86992639 45 217 C48.75928379 221.13521217 49.41946303 225.21663335 49.33984375 230.6484375 C48.77188742 234.57843416 47.01309698 237.44383421 44 240 C38.50669667 242.95368571 33.99188344 243.48322473 27.8125 243.375 C26.97533447 243.36484863 26.13816895 243.35469727 25.27563477 243.34423828 C11.70886384 243.00693204 1.29568255 238.87839714 -9 230 C-18.16098186 219.32071761 -22.15069056 208.95230545 -22.14717102 194.95385742 C-22.15084771 194.16075511 -22.1545244 193.3676528 -22.1583125 192.55051708 C-22.16929532 189.90216097 -22.17318386 187.25384417 -22.17700195 184.60546875 C-22.18327039 182.70301185 -22.18991752 180.80055617 -22.19691467 178.89810181 C-22.21790166 172.66124313 -22.22830789 166.42438434 -22.23828125 160.1875 C-22.24232996 158.03868599 -22.24644692 155.8898721 -22.25063133 153.74105835 C-22.26966642 143.65074685 -22.28390439 133.56044261 -22.2922433 123.47011662 C-22.30202809 111.82328681 -22.32838705 100.17664642 -22.36874419 88.52988338 C-22.39887974 79.52422135 -22.4137095 70.51861374 -22.41702431 61.51290226 C-22.41937651 56.13484849 -22.42836007 50.75699749 -22.45348549 45.3789978 C-22.47672817 40.32282136 -22.48101476 35.26698181 -22.47072411 30.21076584 C-22.47022781 28.35560359 -22.47657578 26.50042496 -22.49028015 24.64531326 C-22.50794877 22.11185122 -22.50091843 19.5796051 -22.48774719 17.04614258 C-22.49871644 16.31286838 -22.50968568 15.57959417 -22.52098733 14.82409954 C-22.45745762 9.75983607 -21.16686742 6.90926866 -18 3 C-12.60617019 -1.23608597 -6.55917008 -0.88280654 0 0 Z " fill="#F6F6F7" transform="translate(225,483)"/>
<path d="M0 0 C-4.61649609 4.61649609 -13.51508314 3.11937035 -19.59765625 3.1328125 C-22.81916643 3.00705895 -25.83733306 2.60653887 -29 2 C-29 1.34 -29 0.68 -29 0 C-27.04707031 0.01740234 -27.04707031 0.01740234 -25.0546875 0.03515625 C-23.32812644 0.04453973 -21.60156382 0.05363934 -19.875 0.0625 C-19.0190625 0.07087891 -18.163125 0.07925781 -17.28125 0.08789062 C-11.62808634 0.10963356 -5.32193793 -1.84220928 0 0 Z " fill="#6881E3" transform="translate(393,697)"/>
<path d="M0 0 C0.33 0 0.66 0 1 0 C1.25276645 6.44554455 1.25276645 6.44554455 0.03125 9.125 C-1.46808696 13.30496972 -1.46712868 17.40197005 -1.625 21.8125 C-1.66367187 22.69615234 -1.70234375 23.57980469 -1.7421875 24.49023438 C-1.83600784 26.65982972 -1.91907326 28.82988547 -2 31 C-2.33 31 -2.66 31 -3 31 C-3.08857863 27.7085089 -3.1409104 24.41733195 -3.1875 21.125 C-3.21263672 20.2071875 -3.23777344 19.289375 -3.26367188 18.34375 C-3.33346187 11.73696406 -2.24534805 6.20867002 0 0 Z " fill="#4D4D4E" transform="translate(912,618)"/>
<path d="M0 0 C0.66 0.66 1.32 1.32 2 2 C0.37660195 3.70884005 -1.29319053 5.37446717 -3 7 C-3.66 7 -4.32 7 -5 7 C-5.66 8.32 -6.32 9.64 -7 11 C-7.99 10.67 -8.98 10.34 -10 10 C-8.90033225 8.70450101 -7.79508199 7.41373929 -6.6875 6.125 C-6.07261719 5.40570312 -5.45773437 4.68640625 -4.82421875 3.9453125 C-3 2 -3 2 0 0 Z " fill="#1C1C1D" transform="translate(931,593)"/>
<path d="M0 0 C6.27 0 12.54 0 19 0 C19 0.99 19 1.98 19 3 C14.71 3 10.42 3 6 3 C6 2.67 6 2.34 6 2 C3.03 1.505 3.03 1.505 0 1 C0 0.67 0 0.34 0 0 Z " fill="#1A1B1D" transform="translate(958,726)"/>
<path d="M0 0 C6 0.66666667 12 1.33333333 18 2 C18 2.66 18 3.32 18 4 C6.47835991 4.18451025 6.47835991 4.18451025 1 3 C0.67 2.01 0.34 1.02 0 0 Z " fill="#6A83EE" transform="translate(359,724)"/>
<path d="M0 0 C-1.34156431 2.90779249 -2.86107035 5.2517899 -4.9375 7.6875 C-5.44152344 8.28949219 -5.94554687 8.89148438 -6.46484375 9.51171875 C-8 11 -8 11 -11 12 C-11 9 -11 9 -9.1015625 6.73828125 C-8.28429688 5.93777344 -7.46703125 5.13726563 -6.625 4.3125 C-5.81289062 3.50425781 -5.00078125 2.69601562 -4.1640625 1.86328125 C-2 0 -2 0 0 0 Z " fill="#1A1A1B" transform="translate(1036,696)"/>
<path d="M0 0 C0.66 0.33 1.32 0.66 2 1 C-8.37357631 7.51936219 -8.37357631 7.51936219 -14 9 C-13.67 8.01 -13.34 7.02 -13 6 C-11.02 5.67 -9.04 5.34 -7 5 C-7 4.34 -7 3.68 -7 3 C-4.69631264 1.93347808 -2.35981813 0.93578995 0 0 Z " fill="#9A90F0" transform="translate(618,713)"/>
<path d="M0 0 C0.33 0.66 0.66 1.32 1 2 C0.04956626 3.33897583 -0.91059147 4.67105427 -1.875 6 C-2.40867187 6.7425 -2.94234375 7.485 -3.4921875 8.25 C-3.98976563 8.8275 -4.48734375 9.405 -5 10 C-5.66 10 -6.32 10 -7 10 C-7.66 11.32 -8.32 12.64 -9 14 C-9.99 14 -10.98 14 -12 14 C-11.30132812 13.24074219 -10.60265625 12.48148438 -9.8828125 11.69921875 C-8.96343578 10.69540947 -8.04417079 9.69149785 -7.125 8.6875 C-6.66480469 8.18798828 -6.20460938 7.68847656 -5.73046875 7.17382812 C-3.61393392 4.85790957 -1.74473617 2.61710426 0 0 Z " fill="#131329" transform="translate(523,606)"/>
<path d="M0 0 C1.27609323 0.90933009 2.54565553 1.82782853 3.8125 2.75 C4.87404297 3.51570312 4.87404297 3.51570312 5.95703125 4.296875 C8.02977691 6.02482358 9.47375854 7.78526476 11 10 C7.27961985 10 6.55097121 9.09675609 3.8125 6.6875 C3.09707031 6.07261719 2.38164062 5.45773437 1.64453125 4.82421875 C0 3 0 3 0 0 Z " fill="#6682EA" transform="translate(317,702)"/>
<path d="M0 0 C0 0.99 0 1.98 0 3 C-1.26418246 3.69965443 -2.53665402 4.38434763 -3.8125 5.0625 C-4.52019531 5.44535156 -5.22789062 5.82820312 -5.95703125 6.22265625 C-8 7 -8 7 -11 6 C-8.7991151 3.52140092 -6.93627031 2.38789634 -3.8125 1.3125 C-3.09707031 1.06113281 -2.38164063 0.80976562 -1.64453125 0.55078125 C-1.10183594 0.36902344 -0.55914063 0.18726563 0 0 Z " fill="#E0DFE0" transform="translate(934,558)"/>
<path d="M0 0 C0.65234375 1.734375 0.65234375 1.734375 1 4 C0.00390625 6.140625 0.00390625 6.140625 -1.4375 8.25 C-1.91058594 8.95640625 -2.38367188 9.6628125 -2.87109375 10.390625 C-3.24363281 10.92171875 -3.61617188 11.4528125 -4 12 C-4.66 11.67 -5.32 11.34 -6 11 C-4.54955729 6.89041233 -2.48889248 3.56741255 0 0 Z " fill="#677EDC" transform="translate(307,586)"/>
<path d="M0 0 C0 0.66 0 1.32 0 2 C-3.63 3.32 -7.26 4.64 -11 6 C-11 5.34 -11 4.68 -11 4 C-11.66 3.67 -12.32 3.34 -13 3 C-11.58603098 2.49242138 -10.16868271 1.99425075 -8.75 1.5 C-7.96109375 1.2215625 -7.1721875 0.943125 -6.359375 0.65625 C-4 0 -4 0 0 0 Z " fill="#697BDB" transform="translate(358,554)"/>
<path d="M0 0 C0.33 0 0.66 0 1 0 C1.38063221 2.3260857 1.71269945 4.66055264 2 7 C1.67 7.33 1.34 7.66 1 8 C0.76346477 10.52596259 0.57826308 13.03107207 0.4375 15.5625 C0.39431641 16.27341797 0.35113281 16.98433594 0.30664062 17.71679688 C0.20028223 19.47761912 0.09961154 21.2387832 0 23 C-0.33 23 -0.66 23 -1 23 C-1.02706445 20.10410348 -1.04687029 17.20846205 -1.0625 14.3125 C-1.07087891 13.49587891 -1.07925781 12.67925781 -1.08789062 11.83789062 C-1.10442051 7.75500916 -1.03035098 3.98348293 0 0 Z " fill="#636365" transform="translate(711,625)"/>
<path d="M0 0 C-0.33 0.99 -0.66 1.98 -1 3 C-3.06640625 3.94921875 -3.06640625 3.94921875 -5.5625 4.6875 C-6.38878906 4.93886719 -7.21507812 5.19023438 -8.06640625 5.44921875 C-9.02353516 5.72185547 -9.02353516 5.72185547 -10 6 C-10.66 5.34 -11.32 4.68 -12 4 C-10.56570999 3.32645501 -9.12742943 2.66140299 -7.6875 2 C-6.88699219 1.62875 -6.08648438 1.2575 -5.26171875 0.875 C-3 0 -3 0 0 0 Z " fill="#131221" transform="translate(556,585)"/>
<path d="M0 0 C-1.375 2 -1.375 2 -4 4 C-7.3580469 4.35791096 -10.63536357 4.23115823 -14 4 C-11.37350692 2.24900461 -9.38191413 1.30690675 -6.4375 0.3125 C-5.65246094 0.04050781 -4.86742187 -0.23148438 -4.05859375 -0.51171875 C-2 -1 -2 -1 0 0 Z M-9 4 C-7 5 -7 5 -7 5 Z " fill="#373739" transform="translate(1003,720)"/>
<path d="M0 0 C0.33 0.99 0.66 1.98 1 3 C0.52949219 3.39832031 0.05898438 3.79664063 -0.42578125 4.20703125 C-1.04839844 4.73683594 -1.67101562 5.26664063 -2.3125 5.8125 C-2.92738281 6.33457031 -3.54226563 6.85664062 -4.17578125 7.39453125 C-5.85424679 8.87172469 -7.43882034 10.40039131 -9 12 C-9 9 -9 9 -7.03125 6.73828125 C-5.77828125 5.53751953 -5.77828125 5.53751953 -4.5 4.3125 C-3.6646875 3.50425781 -2.829375 2.69601562 -1.96875 1.86328125 C-1.3190625 1.24839844 -0.669375 0.63351562 0 0 Z " fill="#878AE8" transform="translate(512,574)"/>
<path d="M0 0 C0.33 0.99 0.66 1.98 1 3 C-1.97 4.32 -4.94 5.64 -8 7 C-8.66 6.34 -9.32 5.68 -10 5 C-6.7 3.35 -3.4 1.7 0 0 Z " fill="#697BD5" transform="translate(409,688)"/>
<path d="M0 0 C0.66 0.66 1.32 1.32 2 2 C1.38125 2.2475 0.7625 2.495 0.125 2.75 C-2.4072196 4.23954094 -2.80718658 5.37581048 -4 8 C-5.625 9.75 -5.625 9.75 -7 11 C-7.66 10.67 -8.32 10.34 -9 10 C-6.03 6.7 -3.06 3.4 0 0 Z " fill="#7686E8" transform="translate(435,662)"/>
<path d="M0 0 C0.99 0.66 1.98 1.32 3 2 C-1.39453125 6.00390625 -1.39453125 6.00390625 -3 7 C-3.99 6.67 -4.98 6.34 -6 6 C-4.02 4.02 -2.04 2.04 0 0 Z " fill="#6981E3" transform="translate(319,573)"/>
<path d="M0 0 C-3.87671106 2.67289025 -7.79267603 2.01875653 -12.25 1.625 C-12.99507812 1.56828125 -13.74015625 1.5115625 -14.5078125 1.453125 C-16.33935108 1.31223742 -18.16981352 1.15748116 -20 1 C-20 0.67 -20 0.34 -20 0 C-17.41703983 -0.19522373 -14.83395921 -0.38144403 -12.25 -0.5625 C-11.52039063 -0.61857422 -10.79078125 -0.67464844 -10.0390625 -0.73242188 C-6.45046349 -0.97709908 -3.44972775 -0.99666259 0 0 Z " fill="#A3A2A4" transform="translate(981,697)"/>
<path d="M0 0 C0.66 0.99 1.32 1.98 2 3 C1.21654285 4.17219543 0.42297164 5.33763668 -0.375 6.5 C-0.81585937 7.1496875 -1.25671875 7.799375 -1.7109375 8.46875 C-2.13632812 8.9740625 -2.56171875 9.479375 -3 10 C-3.66 10 -4.32 10 -5 10 C-3.66511872 6.40608886 -2.03977277 3.24509304 0 0 Z " fill="#DAD9DB" transform="translate(694,592)"/>
<path d="M0 0 C0.66 0.33 1.32 0.66 2 1 C-0.64 3.97 -3.28 6.94 -6 10 C-6.66 9.67 -7.32 9.34 -8 9 C-5.36 6.03 -2.72 3.06 0 0 Z " fill="#707AD5" transform="translate(452,642)"/>
<path d="M0 0 C0.33 0.66 0.66 1.32 1 2 C-0.98 4.64 -2.96 7.28 -5 10 C-5.99 9.67 -6.98 9.34 -8 9 C-5.36 6.03 -2.72 3.06 0 0 Z " fill="#7B83DC" transform="translate(463,629)"/>
<path d="M0 0 C0.33 0 0.66 0 1 0 C1.17835515 4.54805635 0.99785435 7.8794254 -1 12 C-1.33 12 -1.66 12 -2 12 C-1.85831863 10.56208484 -1.71148957 9.1246763 -1.5625 7.6875 C-1.48128906 6.88699219 -1.40007813 6.08648438 -1.31640625 5.26171875 C-1 3 -1 3 0 0 Z " fill="#323233" transform="translate(912,618)"/>
<path d="M0 0 C0.66 0.99 1.32 1.98 2 3 C-0.31 4.98 -2.62 6.96 -5 9 C-5.66 8.67 -6.32 8.34 -7 8 C-4.69 5.36 -2.38 2.72 0 0 Z " fill="#15152A" transform="translate(510,621)"/>
<path d="M0 0 C0.66 0.33 1.32 0.66 2 1 C1 3 0 5 -1 7 C-1.66 7 -2.32 7 -3 7 C-3.33 6.01 -3.66 5.02 -4 4 C-2.68 2.68 -1.36 1.36 0 0 Z " fill="#9198F3" transform="translate(484,647)"/>
<path d="M0 0 C0.33 0 0.66 0 1 0 C1.14285714 7.42857143 1.14285714 7.42857143 0 11 C-0.66 11 -1.32 11 -2 11 C-1.125 3.375 -1.125 3.375 0 0 Z " fill="#5F75CF" transform="translate(294,609)"/>
<path d="M0 0 C2.97 0.99 5.94 1.98 9 3 C8.67 3.66 8.34 4.32 8 5 C5.07120629 4.37240135 2.63904371 3.41377341 0 2 C0 1.34 0 0.68 0 0 Z " fill="#0F0E13" transform="translate(784,583)"/>
<path d="M0 0 C0.66 0.33 1.32 0.66 2 1 C-2.75 5.875 -2.75 5.875 -5 7 C-5.66 6.34 -6.32 5.68 -7 5 C-4.69 3.35 -2.38 1.7 0 0 Z " fill="#1F1F21" transform="translate(1022,707)"/>
<path d="M0 0 C3.3 0 6.6 0 10 0 C9.67 0.99 9.34 1.98 9 3 C6.1875 3.1875 6.1875 3.1875 3 3 C2.01 2.01 1.02 1.02 0 0 Z " fill="#D1D0D3" transform="translate(953,552)"/>
<path d="M0 0 C1.875 0.1875 1.875 0.1875 4 1 C5.25 3.5625 5.25 3.5625 6 6 C5.01 6.495 5.01 6.495 4 7 C2.02 3.535 2.02 3.535 0 0 Z " fill="#5F7CE7" transform="translate(304,689)"/>
<path d="M0 0 C3.43595166 1.52708963 6.11912454 3.59927045 9 6 C8.01 6.33 7.02 6.66 6 7 C6 6.34 6 5.68 6 5 C5.195625 4.731875 4.39125 4.46375 3.5625 4.1875 C2.716875 3.795625 1.87125 3.40375 1 3 C0.67 2.01 0.34 1.02 0 0 Z " fill="#637EE5" transform="translate(339,685)"/>
<path d="M0 0 C0.33 2.64 0.66 5.28 1 8 C-0.65 6.35 -2.3 4.7 -4 3 C-1.125 0 -1.125 0 0 0 Z " fill="#8A93EC" transform="translate(482,665)"/>
<path d="M0 0 C2.46254526 2.1413437 3.69050349 3.69870394 4 7 C3.01 8.485 3.01 8.485 2 10 C0.68373308 6.38026598 0 3.90432869 0 0 Z " fill="#5E78D5" transform="translate(292,661)"/>
<path d="M0 0 C0.66 0.33 1.32 0.66 2 1 C0.87548273 3.9719385 -0.22293791 6.33440687 -2 9 C-2.66 9 -3.32 9 -4 9 C-3.71125 8.443125 -3.4225 7.88625 -3.125 7.3125 C-1.9586747 4.91505355 -0.9660119 2.48403061 0 0 Z " fill="#6D86EF" transform="translate(324,611)"/>
<path d="M0 0 C0.99 0.33 1.98 0.66 3 1 C1.63016497 4.16115776 1.0109362 4.9927092 -2 7 C-2.33 5.68 -2.66 4.36 -3 3 C-2.01 2.67 -1.02 2.34 0 2 C0 1.34 0 0.68 0 0 Z " fill="#9498F3" transform="translate(498,630)"/>
<path d="M0 0 C0.75 1.75 0.75 1.75 1 4 C-0.9375 6.25 -0.9375 6.25 -3 8 C-3.33 7.34 -3.66 6.68 -4 6 C-2.68 4.02 -1.36 2.04 0 0 Z " fill="#11132A" transform="translate(332,603)"/>
<path d="M0 0 C-0.33 0.99 -0.66 1.98 -1 3 C-3.5625 4.1875 -3.5625 4.1875 -6 5 C-6.66 4.34 -7.32 3.68 -8 3 C-2.25 0 -2.25 0 0 0 Z " fill="#14162B" transform="translate(355,587)"/>
</svg>
